pedal_clip_forces.mot
version=1
nRows=123
nColumns=4
inDegrees=yes
endheader
time	PedalClip_calcn_r_Fx	PedalClip_calcn_r_Fy	PedalClip_calcn_r_Fz
0	21.2252457937131	-20.3706762622663	-0
0.00110331	21.8851855657955	-20.0858733788654	-0
0.00548052	22.5319111909155	-19.8346125842585	-0
0.00985773	23.165413368656	-19.616831354812	-0
0.01455074	23.7856818365586	-19.4324601779865	-0
0.01756444	24.3927052766069	-19.2814212111721	-0
0.02150259	24.986471217822	-19.1636135752317	-0
0.02462419	25.5669659377173	-19.0788769725625	-0
0.02878955	26.1341754003665	-19.027032335851	-0
0.03094234	26.6880875724572	-19.0079026997907	-0
0.03389993	27.2286861618373	-19.0213010590025	-0
0.03715857	27.7559450212292	-19.0670255915657	-0
0.03946446	28.2698360339141	-19.1448582554747	-0
0.04279381	28.7703294108921	-19.254563107381	-0
0.04525225	29.2573911180346	-19.3958843274259	-0
0.04771069	29.7309855796291	-19.5685440136708	-0
0.05016912	30.1910786518298	-19.7722445541607	-0
0.05226883	30.6376399768929	-20.0066837413738	-0
0.05436854	31.0706539655626	-20.2715576521765	-0
0.05646825	31.4901204518824	-20.5666024084218	-0
0.05899823	31.8960664184068	-20.8916167639434	-0
0.06057528	32.2885418846908	-21.2465786041153	-0
0.06254191	32.6676231032643	-21.6318418360226	-0
0.06449516	33.0334127893802	-22.048827475828	-0
0.06644842	33.3860427492449	-22.5022168409766	-0
0.06840168	33.7181531985786	-23.0230692278412	-0
0.07035494	34.0374294973392	-23.5813048885902	-0
0.07196884	34.3431009575292	-24.1836083910939	-0
0.07358275	34.6344684522794	-24.8204262393547	-0
0.07554793	34.9095622292845	-25.4658896642111	-0
0.07751311	35.1662116159391	-26.1119380789169	-0
0.07892742	35.4042689014634	-26.7646994346549	-0
0.08034174	35.6265292288413	-27.4242189724799	-0
0.08224145	35.8347111609423	-28.0910083282177	-0
0.08386921	36.0323188519998	-28.7651612725205	-0
0.08549697	36.2233710865503	-29.4459663037122	-0
0.08712473	36.4112056306487	-30.1324085527898	-0
0.08852865	36.5995785774856	-30.8232020581157	-0
0.08993257	36.7896482907767	-31.5168021657469	-0
0.09133649	36.9814234443103	-32.211423962695	-0
0.09274041	37.1732461902329	-32.9053220173251	-0
0.09414433	37.3641283039717	-33.59697487683	-0
0.09554825	37.553154358865	-34.2847428318623	-0
0.09695217	37.7399372065142	-34.9673922778313	-0
0.09818253	37.9243433700415	-35.6437574337016	-0
0.09941288	38.1067706355996	-36.3133942150079	-0
0.10058842	38.2876443169404	-36.9758142042559	-0
0.10214927	38.4668750413698	-37.6314051303353	-0
0.10352052	38.6444548107215	-38.2807018087075	-0
0.10471866	38.8202629743269	-38.9248324774867	-0
0.1059168	38.9941578037284	-39.5642342931612	-0
0.10698729	39.1657958858297	-40.1988807788056	-0
0.10805778	39.3347348892266	-40.8290120397878	-0
0.10907205	39.5006211074679	-41.4549186608603	-0
0.11045998	39.6630852918397	-42.0765811243532	-0
0.11168314	39.8218655026547	-42.6938128448216	-0
0.11250652	39.9770049776035	-43.306526322138	-0
0.11361476	40.1287563504781	-43.9146357617279	-0
0.11458172	40.2771700143406	-44.5177672950146	-0
0.11554868	40.4222862900556	-45.1155450028577	-0
0.11639903	40.5640870152323	-45.7076573809097	-0
0.11762595	40.7025537908965	-46.2941230579814	-0
0.11885288	40.8377332096054	-46.875306014488	-0
0.11975631	40.9698023432235	-47.4521321570387	-0
0.12094903	41.098912393511	-48.0254389649327	-0
0.12214175	41.2251910260828	-48.5960725903561	-0
0.12333446	41.3487378350877	-49.1646162111486	-0
0.12401369	41.4696255134298	-49.7315450018685	-0
0.12494958	41.5878618624336	-50.2969514877301	-0
0.12574399	41.7034324806162	-50.8606785736039	-0
0.12680281	41.8164208749035	-51.4224408334656	-0
0.12786164	41.9269368405585	-51.9819116548563	-0
0.12850538	42.034991205381	-52.5385850228099	-0
0.12949251	42.1405913604481	-53.091931747986	-0
0.13029183	42.2437063730476	-53.6413171583027	-0
0.13109115	42.3443975327348	-54.1862959968546	-0
0.13191203	42.442730064129	-54.7266934399796	-0
0.13289874	42.5388816655442	-55.262767303453	-0
0.13388545	42.6329911103802	-55.7948900245362	-0
0.13460022	42.7252027694875	-56.3236134131647	-0
0.13584466	42.8157063062258	-56.8497571173787	-0
0.13683015	42.9049768103208	-57.3748097726324	-0
0.13781565	42.9935897730899	-57.900568765525	-0
0.13880114	43.0820875648197	-58.4288013441968	-0
0.13954765	43.1710872445055	-58.9612023702587	-0
0.14027448	43.2610578243433	-59.4989482779767	-0
0.1412284	43.352318089664	-60.0425934719281	-0
0.14218232	43.445024087932	-60.5920929680737	-0
0.14282471	43.539161784336	-61.1469342920018	-0
0.14362184	43.6345504609461	-61.7063123321122	-0
0.14429524	43.7309970234335	-62.2694891254111	-0
0.14516353	43.8283189101121	-62.8358190620599	-0
0.14603182	43.9264800127406	-63.4049960232495	-0
0.14690012	44.0253620618712	-63.9766540770939	-0
0.14755021	44.1248502204225	-64.5505100778784	-0
0.14850851	44.2248604267589	-65.1264368308809	-0
0.1494668	44.325348019061	-65.7044946839619	-0
0.15042509	44.4262505788856	-66.2847658660965	-0
0.15138338	44.5275247819377	-66.8672423584068	-0
0.15234167	44.6290741981962	-67.4517158117033	-0
0.15329997	44.7307501628737	-68.0377005076839	-0
0.15425826	44.832211700393	-68.6241838169547	-0
0.15511213	44.9330076772406	-69.2097879242891	-0
0.15596599	45.0325859109893	-69.792908186435	-0
0.15652031	45.1304577367279	-70.3720002102575	-0
0.15725617	45.2262586740569	-70.9457123171818	-0
0.1579218	45.3198117006527	-71.513164736093	-0
0.15858743	45.4109548370326	-72.0736943192728	-0
0.1592809	45.4994951132359	-72.626703965518	-0
0.16016196	45.5855053226483	-73.1719715608442	-0
0.16104302	45.6692303463555	-73.7096557268036	-0
0.16192409	45.7508584289451	-74.2400158718391	-0
0.1624969	45.8304956733459	-74.7633452017516	-0
0.16306971	45.9082619330623	-75.2802812397305	-0
0.164094	45.9843097780208	-75.7916225525703	-0
0.16469848	46.0587467924796	-76.2981107305813	-0
0.16542221	46.1317179439284	-76.8005073123248	-0
0.16614593	46.2033743919845	-77.2995512293079	-0
0.16671777	46.273929475814	-77.7959859510015	-0
0.16743202	46.3434819472353	-78.2902554608096	-0
0.16803048	46.4120930854744	-78.7825874046395	-0
0.16875018	46.4797720108767	-79.2730058417041	-0
0.16932031	46.546527690921	-79.7614336336614	-0
